<svg xmlns="http://www.w3.org/2000/svg" x="0px" y="0px"
width="50" height="50"
viewBox="0,0,256,256"
style="fill:#000000;">
<g fill="#fa5252" fill-rule="nonzero" stroke="none" stroke-width="1" stroke-linecap="butt" stroke-linejoin="miter" stroke-miterlimit="10" stroke-dasharray="" stroke-dashoffset="0" font-family="none" font-weight="none" font-size="none" text-anchor="none" style="mix-blend-mode: normal"><g transform="scale(5.12,5.12)"><path d="M9.66016,5.95898c-1.4421,0 -2.64258,1.18255 -2.64258,2.62695v4.67773c-0.77253,0.2648 -1.46742,0.74066 -1.99609,1.38672c-0.84197,1.02762 -1.17732,2.38328 -0.91016,3.68555c0.93011,4.4993 2.25474,10.92141 2.30273,11.1543c-0.04837,0.23458 -1.36686,6.62513 -2.29492,11.125c-0.26986,1.30928 0.06794,2.67093 0.91406,3.70508c0.84792,1.03348 2.11813,1.63477 3.45898,1.63477h32.91016c1.35677,0 2.64224,-0.60724 3.50195,-1.6543h0.00195c0.85922,-1.04801 1.19829,-2.42865 0.92578,-3.75391c-0.92812,-4.4982 -2.23348,-10.82706 -2.28125,-11.05859c0.04839,-0.23509 1.37078,-6.6623 2.29883,-11.16211c0.26762,-1.29933 -0.06461,-2.65331 -0.9082,-3.68164c-0.51679,-0.63093 -1.19276,-1.09469 -1.94336,-1.36133v-4.69727c0,-1.4444 -1.20048,-2.62695 -2.64258,-2.62695zM9.66016,7.95898h30.69531c0.3719,0 0.64258,0.27535 0.64258,0.62695v4.4375h-31.98047v-4.4375c0,-0.3516 0.27068,-0.62695 0.64258,-0.62695zM19.98828,21.9043c4.596,0 4.76758,3.48892 4.76758,4.16992c0,1.787 -1.53291,2.80844 -2.12891,3.14844v0.08594c0.171,0.031 0.3797,0.09569 0.5957,0.17969h-4.16992v0.83984c0.34,-0.085 0.68047,-0.08594 1.10547,-0.08594c0.425,0 3.32031,0.08647 3.32031,2.98047c0,2.808 -2.9793,3.0625 -3.4043,3.0625c-1.509,0 -3.25755,-0.91581 -3.31055,-3.38281h-1.87891c0.017,1.227 0.38945,5 5.18945,5c0.936,0 5.36133,-0.25462 5.36133,-4.76562c0,-2.291 -1.24198,-3.26944 -2.20898,-3.64844h8.74414v-3.18359h-3.91602v-1.4082c1.262,0 2.26391,-0.20523 3.00391,-0.61523c0.74,-0.41 1.23438,-1.16562 1.48438,-2.26562h1.47461v7.47266h7.49219l0.04102,0.20313c0,0 1.37726,6.6778 2.32227,11.25781c0.15149,0.73675 -0.03489,1.49804 -0.51367,2.08203c-0.48029,0.58494 -1.1958,0.92383 -1.95703,0.92383h-32.91016c-0.74514,0 -1.44403,-0.33183 -1.91211,-0.90234c-0.46694,-0.57169 -0.64996,-1.31513 -0.50195,-2.0332c0.94501,-4.58204 2.33594,-11.32812 2.33594,-11.32812l0.04102,-0.20312h10.59766v-0.77539h0.76563c2.724,0 2.98047,-2.12869 2.98047,-2.55469c0,-0.851 -0.34255,-2.55273 -2.81055,-2.55273c-2.636,0 -2.94661,2.62483 -2.97461,3.29883h-1.87305c0.023,-0.978 0.41866,-5 4.84766,-5zM31.99023,29.48828v8.10156h1.98047v-8.10156z"></path></g></g>
</svg>